PathFileType	4	(X/Y/Z)	C:\Users\°ÂÌØÂü\Desktop\20210112\bx_y_5_1802-Unnamed.trc
DataRate	CameraRate	NumFrames	NumMarkers	Units	OrigDataRate	OrigDataStartFrame	OrigNumFrames
50.00	50.00	       4	0	mm	50.00	120	       478
Frame#	Time	
		

120	2.380				-703.77808	313.45566	606.42773	-535.03101	185.14722	539.52960	-730.86847	-23.93089	720.15308	-790.76080	303.32556	693.96844	-725.14294	235.65260	718.64581	-446.08023	285.12869	926.61993	-690.31177	-91.78034	605.04370				-701.98926	78.02263	212.26472	-548.38593	-28.73464	470.55914	-573.72870	292.23752	520.36835	-632.19427	289.19818	464.67368	-835.73083	6.20665	766.11115	-522.70770	244.16296	479.46918	-665.79602	-68.70307	162.73250	-561.35052	29.31220	546.38940	-625.48315	-80.09327	158.89879	-760.77173	223.34862	206.23694	-882.56012	296.20990	144.65924	-672.82196	53.89779	155.00565	-600.83240	17.29732	165.36304	-559.00977	-44.55186	162.06032	-673.62305	174.11525	153.05432	-592.28290	223.29614	171.34741	-666.26636	298.37015	161.18303	-629.77911	307.17313	161.24278	-561.51196	264.56531	164.06125	-528.21753	304.31134	146.43204	-270.89481	126.60310	1159.64758	-517.36340	-72.85857	142.68787							-790.15515	168.08871	191.24966	-756.85645	-3.49646	208.16362	-788.34650	62.41933	178.85573				-658.83014	-68.75600	457.88956	-875.97748	-78.88188	141.21204	-1030.72754	114.25957	782.01532	-812.59491	-81.07995	686.73889	-607.22101	-80.37431	557.86609	-592.73700	-76.62978	518.19275	
121	2.400	-604.91040	293.46246	554.14478	-704.61102	313.02267	608.21436	-536.32532	184.24327	540.41254	-730.72443	-24.13170	721.63898	-791.07288	302.93106	696.25159	-725.10529	235.35297	720.97534	-448.77386	285.31601	931.45764	-691.48401	-91.50491	606.54510				-702.08563	78.06638	212.18390	-550.35223	-29.27963	470.89545	-574.79504	291.14310	520.81500	-633.58868	288.18335	464.99060	-836.33698	5.70458	769.39252	-523.91125	243.80611	480.47275	-665.62683	-68.70474	162.62154	-562.79089	29.31567	547.05963	-625.33734	-80.21529	158.83661	-760.88666	223.67210	206.28322	-882.62708	296.25787	144.73608	-672.70868	53.82850	155.00844	-600.96783	17.17745	165.76877	-559.12683	-44.64676	161.78717	-673.76001	174.06525	153.10106	-592.28290	223.29614	171.34741	-666.15106	298.34430	160.88020	-629.74854	307.09314	161.19711	-561.17017	264.24286	163.54909	-528.24835	304.48935	146.43700	-271.82477	126.40387	1164.19885	-517.60492	-72.52105	142.65837							-789.74170	168.61440	190.26692	-757.30591	-3.89958	207.91945	-788.52386	62.55721	178.79247				-660.84308	-68.69973	458.56168	-875.97748	-78.88188	141.21204	-1031.13135	114.78206	785.44574	-813.62274	-81.47797	689.29730	-608.08148	-80.29800	558.51642	-594.00775	-76.57461	519.03821	
122	2.420				-705.28027	312.96716	610.49896	-537.53986	183.33234	540.62323	-731.00024	-24.81593	723.50629	-791.93726	302.54333	698.82813	-726.05719	234.73203	722.53418	-450.93619	285.33762	937.10358	-692.54877	-91.07044	607.61163	-434.64581	-35.50552	932.77057	-702.31976	77.60653	212.22865	-551.02478	-28.94144	472.05887	-575.90454	290.15247	521.35718	-634.17889	287.49918	465.00757	-836.65173	5.88649	772.37018	-525.65369	243.21555	480.20334	-665.84747	-68.67224	162.45244	-563.79614	29.84824	547.84827	-625.36951	-80.43937	158.72473	-760.80237	223.60464	206.24670	-882.55109	296.12347	144.66063	-672.88098	53.80548	155.15993	-600.95801	17.13451	165.84431	-559.41040	-44.44373	161.04247	-673.76001	174.06525	153.10106	-592.45880	223.21745	171.37843	-666.20563	298.26569	161.37157	-629.71832	307.09747	161.28720	-561.34656	264.26331	163.69809	-528.27325	304.36093	146.42050	-272.94403	126.13897	1169.68909	-517.72736	-72.34167	142.40384							-789.80127	168.64583	190.22382	-757.52783	-4.08945	208.09390	-788.61749	62.36599	178.83542				-661.46387	-69.19037	459.43552	-875.97748	-78.88188	141.21204	-1031.19446	114.91995	788.70538	-814.16827	-81.55487	691.50500	-609.89117	-80.44306	559.62500	-595.50287	-76.64122	519.64661	
123	2.440	-607.34686	292.85181	557.16998	-706.07855	311.67230	611.55853	-538.75922	182.06694	541.59595	-731.40698	-25.04184	725.35883	-792.23627	302.47830	701.33521	-726.37061	234.36867	725.02881				-693.22705	-91.07304	609.08282	-436.36615	-36.29820	939.61499	-702.31976	77.60653	212.22865	-552.44647	-28.71712	472.74829	-576.85089	289.37140	522.64600	-635.09229	287.27359	466.50812	-837.46893	5.46316	775.99353	-527.03961	242.85762	480.79956	-665.78967	-68.72621	162.42491	-564.49756	29.85111	548.53949	-625.36951	-80.43937	158.72473	-760.98657	223.58852	206.10727	-882.62158	296.14899	144.58987	-673.15753	53.61703	154.91071	-600.79181	17.22695	165.66673	-559.58087	-44.23973	160.85176	-673.76001	174.06525	153.10106	-592.45880	223.21745	171.37843	-666.15881	298.46774	160.97986	-629.68774	307.01746	161.24153	-561.42761	264.16040	163.53668	-528.32758	304.30182	146.55113	-274.38907	126.07021	1175.96411	-517.61884	-72.54107	142.60072							-790.23615	168.73386	190.08327	-757.89172	-3.86566	208.09593	-788.44983	62.34489	178.99011				-662.29266	-69.37939	459.63885	-876.05652	-78.57231	140.90112	-1031.44666	114.67014	792.84326	-814.51642	-81.53081	693.22321	-610.91174	-80.37621	560.24976	-596.77173	-76.27275	520.14844	
